<svg width="26" height="26" viewBox="0 0 26 26" fill="none" xmlns="http://www.w3.org/2000/svg">
<path d="M13 24.6459C6.57585 24.6459 1.35419 19.4242 1.35419 13C1.35419 6.57585 6.57585 1.35419 13 1.35419C19.4242 1.35419 24.6459 6.57585 24.6459 13C24.6459 19.4242 19.4242 24.6459 13 24.6459ZM13 2.97919C7.47502 2.97919 2.97919 7.47502 2.97919 13C2.97919 18.525 7.47502 23.0209 13 23.0209C18.525 23.0209 23.0209 18.525 23.0209 13C23.0209 7.47502 18.525 2.97919 13 2.97919Z" fill="black"/>
<path d="M9.74781 23.5625H8.66448C8.22031 23.5625 7.85198 23.1942 7.85198 22.75C7.85198 22.3058 8.19865 21.9483 8.64281 21.9375C6.94198 16.1005 6.94198 9.89946 8.64281 4.0625C8.43065 4.05823 8.2287 3.97058 8.08069 3.81851C7.93268 3.66645 7.85051 3.4622 7.85198 3.25C7.85198 2.80583 8.22031 2.4375 8.66448 2.4375H9.74781C10.0078 2.4375 10.257 2.5675 10.4086 2.77333C10.5603 2.99 10.6036 3.26083 10.517 3.51C8.48031 9.67646 8.48031 16.3344 10.517 22.5008C10.6036 22.75 10.5603 23.0208 10.4086 23.2375C10.257 23.4325 10.0078 23.5625 9.74781 23.5625ZM16.2478 23.5625C16.1184 23.5636 15.9907 23.5336 15.8753 23.475C15.76 23.4164 15.6604 23.3309 15.585 23.2258C15.5096 23.1207 15.4605 22.9989 15.442 22.8709C15.4235 22.7428 15.4361 22.6122 15.4786 22.49C17.5153 16.3235 17.5153 9.66563 15.4786 3.49917C15.4445 3.39816 15.4306 3.29142 15.4377 3.18503C15.4448 3.07864 15.4728 2.9747 15.5201 2.87913C15.5674 2.78357 15.633 2.69825 15.7133 2.62805C15.7935 2.55785 15.8868 2.50415 15.9878 2.47C16.0888 2.43586 16.1956 2.42194 16.302 2.42905C16.4083 2.43616 16.5123 2.46416 16.6078 2.51144C16.7034 2.55872 16.7887 2.62436 16.8589 2.70461C16.9291 2.78487 16.9828 2.87816 17.017 2.97917C19.1728 9.47469 19.1728 16.4928 17.017 22.9883C16.9086 23.3458 16.5836 23.5625 16.2478 23.5625Z" fill="black"/>
<path d="M13 18.6334C9.97753 18.6334 6.96586 18.2109 4.06253 17.355C4.0517 17.7884 3.6942 18.1459 3.25003 18.1459C2.80586 18.1459 2.43753 17.7775 2.43753 17.3334V16.25C2.43753 15.99 2.56753 15.7409 2.77336 15.5892C2.99003 15.4375 3.26086 15.3942 3.51003 15.4809C9.67649 17.5175 16.3344 17.5175 22.5009 15.4809C22.6234 15.4389 22.7542 15.4268 22.8823 15.4457C23.0105 15.4645 23.1323 15.5137 23.2375 15.5892C23.4542 15.7409 23.5734 15.99 23.5734 16.25V17.3334C23.5734 17.7775 23.205 18.1459 22.7609 18.1459C22.3167 18.1459 21.9592 17.7992 21.9484 17.355C19.0342 18.2109 16.0225 18.6334 13 18.6334ZM22.75 10.5625C22.6634 10.5625 22.5767 10.5517 22.49 10.5192C16.3236 8.48253 9.66566 8.48253 3.4992 10.5192C3.06586 10.66 2.61086 10.4325 2.47003 10.01C2.34003 9.57669 2.56753 9.12169 2.99003 8.98086C9.48555 6.82506 16.5037 6.82506 22.9992 8.98086C23.4217 9.12169 23.66 9.58753 23.5084 10.01C23.4575 10.171 23.3564 10.3115 23.22 10.4109C23.0835 10.5103 22.9189 10.5634 22.75 10.5625Z" fill="black"/>
</svg>
